<mxfile host="app.diagrams.net" modified="2024-01-17T07:22:04.997Z" agent="Mozilla/5.0 (Windows NT 10.0; Win64; x64) AppleWebKit/537.36 (KHTML, like Gecko) Chrome/120.0.0.0 Safari/537.36" etag="I4Nwv9rUchFaryLZsg-9" version="22.1.20" type="device">
  <diagram name="Page-1" id="rc0uClVn3gRNKsO3K7OQ">
    <mxGraphModel dx="1434" dy="746" grid="1" gridSize="10" guides="1" tooltips="1" connect="1" arrows="1" fold="1" page="1" pageScale="1" pageWidth="850" pageHeight="1100" math="0" shadow="0">
      <root>
        <mxCell id="0" />
        <mxCell id="1" parent="0" />
        <mxCell id="KmxPRvAj4UWwm7iY_j5c-23" value="" style="shape=flexArrow;endArrow=classic;html=1;rounded=0;" parent="1" edge="1">
          <mxGeometry width="50" height="50" relative="1" as="geometry">
            <mxPoint x="420" y="440" as="sourcePoint" />
            <mxPoint x="420" y="500" as="targetPoint" />
          </mxGeometry>
        </mxCell>
        <mxCell id="KmxPRvAj4UWwm7iY_j5c-24" value="A" style="rounded=0;whiteSpace=wrap;html=1;fillColor=#dae8fc;strokeColor=#6c8ebf;" parent="1" vertex="1">
          <mxGeometry x="150" y="300" width="80" height="50" as="geometry" />
        </mxCell>
        <mxCell id="KmxPRvAj4UWwm7iY_j5c-27" value="C" style="rounded=0;whiteSpace=wrap;html=1;dashed=1;" parent="1" vertex="1">
          <mxGeometry x="230" y="300" width="80" height="50" as="geometry" />
        </mxCell>
        <mxCell id="KmxPRvAj4UWwm7iY_j5c-28" value="D" style="rounded=0;whiteSpace=wrap;html=1;fillColor=#dae8fc;strokeColor=#6c8ebf;" parent="1" vertex="1">
          <mxGeometry x="310" y="300" width="80" height="50" as="geometry" />
        </mxCell>
        <mxCell id="KmxPRvAj4UWwm7iY_j5c-29" value="unuse space" style="rounded=0;whiteSpace=wrap;html=1;" parent="1" vertex="1">
          <mxGeometry x="470" y="300" width="310" height="50" as="geometry" />
        </mxCell>
        <mxCell id="KmxPRvAj4UWwm7iY_j5c-30" value="&lt;font style=&quot;font-size: 16px;&quot;&gt;第1代&lt;/font&gt;" style="shape=crossbar;whiteSpace=wrap;html=1;rounded=1;labelPosition=center;verticalLabelPosition=bottom;align=center;verticalAlign=top;" parent="1" vertex="1">
          <mxGeometry x="150" y="380" width="320" height="20" as="geometry" />
        </mxCell>
        <mxCell id="KmxPRvAj4UWwm7iY_j5c-32" value="&lt;font style=&quot;font-size: 16px;&quot;&gt;NextObjPtr&lt;/font&gt;" style="endArrow=classic;html=1;rounded=0;" parent="1" edge="1">
          <mxGeometry width="50" height="50" relative="1" as="geometry">
            <mxPoint x="470" y="240" as="sourcePoint" />
            <mxPoint x="470" y="300" as="targetPoint" />
          </mxGeometry>
        </mxCell>
        <mxCell id="KmxPRvAj4UWwm7iY_j5c-33" value="&lt;font style=&quot;font-size: 16px;&quot;&gt;第1代内存超过阈值M，触发第1代GC&lt;/font&gt;" style="text;strokeColor=none;align=center;fillColor=none;html=1;verticalAlign=middle;whiteSpace=wrap;rounded=0;" parent="1" vertex="1">
          <mxGeometry y="310" width="130" height="30" as="geometry" />
        </mxCell>
        <mxCell id="5kZal4q6GeKFS_r1_94x-1" value="H" style="rounded=0;whiteSpace=wrap;html=1;fillColor=#dae8fc;strokeColor=#6c8ebf;" vertex="1" parent="1">
          <mxGeometry x="390" y="300" width="80" height="50" as="geometry" />
        </mxCell>
        <mxCell id="5kZal4q6GeKFS_r1_94x-2" value="A" style="rounded=0;whiteSpace=wrap;html=1;fillColor=#dae8fc;strokeColor=#6c8ebf;" vertex="1" parent="1">
          <mxGeometry x="150" y="570" width="80" height="50" as="geometry" />
        </mxCell>
        <mxCell id="5kZal4q6GeKFS_r1_94x-4" value="D" style="rounded=0;whiteSpace=wrap;html=1;fillColor=#dae8fc;strokeColor=#6c8ebf;" vertex="1" parent="1">
          <mxGeometry x="230" y="570" width="80" height="50" as="geometry" />
        </mxCell>
        <mxCell id="5kZal4q6GeKFS_r1_94x-5" value="unuse space" style="rounded=0;whiteSpace=wrap;html=1;" vertex="1" parent="1">
          <mxGeometry x="390" y="570" width="390" height="50" as="geometry" />
        </mxCell>
        <mxCell id="5kZal4q6GeKFS_r1_94x-6" value="&lt;font style=&quot;font-size: 16px;&quot;&gt;第2代&lt;/font&gt;" style="shape=crossbar;whiteSpace=wrap;html=1;rounded=1;labelPosition=center;verticalLabelPosition=bottom;align=center;verticalAlign=top;" vertex="1" parent="1">
          <mxGeometry x="150" y="650" width="240" height="20" as="geometry" />
        </mxCell>
        <mxCell id="5kZal4q6GeKFS_r1_94x-7" value="&lt;font style=&quot;font-size: 16px;&quot;&gt;NextObjPtr&lt;/font&gt;" style="endArrow=classic;html=1;rounded=0;" edge="1" parent="1">
          <mxGeometry width="50" height="50" relative="1" as="geometry">
            <mxPoint x="390" y="510" as="sourcePoint" />
            <mxPoint x="390" y="570" as="targetPoint" />
          </mxGeometry>
        </mxCell>
        <mxCell id="5kZal4q6GeKFS_r1_94x-8" value="H" style="rounded=0;whiteSpace=wrap;html=1;fillColor=#dae8fc;strokeColor=#6c8ebf;" vertex="1" parent="1">
          <mxGeometry x="310" y="570" width="80" height="50" as="geometry" />
        </mxCell>
        <mxCell id="5kZal4q6GeKFS_r1_94x-9" value="&lt;font style=&quot;font-size: 16px;&quot;&gt;删除未被标记的对象，剩下的归为第2代对象&lt;/font&gt;" style="text;strokeColor=none;align=center;fillColor=none;html=1;verticalAlign=middle;whiteSpace=wrap;rounded=0;" vertex="1" parent="1">
          <mxGeometry x="10" y="590" width="130" height="30" as="geometry" />
        </mxCell>
      </root>
    </mxGraphModel>
  </diagram>
</mxfile>
